<?xml version="1.0" encoding="iso-8859-1"?>
<!-- Generator: Adobe Illustrator 19.0.0, SVG Export Plug-In . SVG Version: 6.00 Build 0)  -->
<svg xmlns="http://www.w3.org/2000/svg" xmlns:xlink="http://www.w3.org/1999/xlink" version="1.1" id="Capa_1" x="0px" y="0px" viewBox="0 0 503.873 503.873" style="enable-background:new 0 0 503.873 503.873;" xml:space="preserve" width="512px" height="512px">
<g>
	<g>
		<path d="M463.238,95.492H277.13l70.705-83.708l-12.19-10.565L256,95.492l-64.203-78.019l-13.003,10.565l55.263,68.267H40.635    C17.879,96.305,0,114.184,0,136.94v292.571c0,22.755,17.879,40.635,40.635,40.635h65.016V486.4H81.27v16.254h341.333V486.4    h-24.381v-16.254h65.016c22.756,0,40.635-17.879,40.635-40.635V136.94C503.873,114.184,485.994,95.492,463.238,95.492z     M381.968,485.587H121.905v-16.254h260.063V485.587z M487.619,428.698c0,13.816-10.565,24.381-24.381,24.381H40.635    c-13.816,0-24.381-10.565-24.381-24.381V136.127c0-13.816,10.565-24.381,24.381-24.381h422.603    c13.816,0,24.381,10.565,24.381,24.381V428.698z" fill="#FFFFFF"/>
	</g>
</g>
<g>
	<g>
		<path d="M32.508,144.254v276.317h357.587V144.254H32.508z M373.841,404.317H48.762V160.508h325.079V404.317z" fill="#FFFFFF"/>
	</g>
</g>
<g>
	<g>
		<path d="M438.857,168.635c-17.879,0-32.508,14.629-32.508,32.508c0,17.879,14.629,32.508,32.508,32.508    s32.508-14.629,32.508-32.508C471.365,183.264,456.737,168.635,438.857,168.635z M438.857,217.397    c-8.94,0-16.254-7.314-16.254-16.254c0-8.94,7.314-16.254,16.254-16.254c8.94,0,16.254,7.314,16.254,16.254    C455.111,210.083,447.797,217.397,438.857,217.397z" fill="#FFFFFF"/>
	</g>
</g>
<g>
	<g>
		<path d="M438.857,266.159c-17.879,0-32.508,14.629-32.508,32.508c0,17.879,14.629,32.508,32.508,32.508    s32.508-14.629,32.508-32.508C471.365,280.787,456.737,266.159,438.857,266.159z M438.857,314.921    c-8.94,0-16.254-7.314-16.254-16.254c0-8.94,7.314-16.254,16.254-16.254c8.94,0,16.254,7.314,16.254,16.254    S447.797,314.921,438.857,314.921z" fill="#FFFFFF"/>
	</g>
</g>
<g>
	<g>
		<rect x="430.73" y="371.81" width="16.254" height="16.254" fill="#FFFFFF"/>
	</g>
</g>
<g>
	<g>
		<rect x="463.238" y="371.81" width="16.254" height="16.254" fill="#FFFFFF"/>
	</g>
</g>
<g>
	<g>
		<rect x="398.222" y="371.81" width="16.254" height="16.254" fill="#FFFFFF"/>
	</g>
</g>
<g>
</g>
<g>
</g>
<g>
</g>
<g>
</g>
<g>
</g>
<g>
</g>
<g>
</g>
<g>
</g>
<g>
</g>
<g>
</g>
<g>
</g>
<g>
</g>
<g>
</g>
<g>
</g>
<g>
</g>
</svg>
